<svg width="120" height="40" viewBox="0 0 120 40" fill="none" xmlns="http://www.w3.org/2000/svg">
  <g id="rice-leaf-logo">
    <!-- Leaf shape -->
    <path d="M15 12C19 12 25 15 25 23C25 25 24 28 20 30C16 32 12 31 10 29C8 27 7 24 8 21C9 18 12 16 15 16" 
          stroke="currentColor" 
          strokeWidth="2" 
          strokeLinecap="round"/>
    <!-- Rice grain -->
    <path d="M20 15C22 17 22 21 20 23C18 25 15 25 13 23C11 21 11 17 13 15C15 13 18 13 20 15Z" 
          fill="none" 
          stroke="currentColor" 
          strokeWidth="2"/>
    <!-- Decorative dot -->
    <circle cx="16" cy="19" r="1" fill="currentColor"/>
  </g>
  
  <!-- Company name -->
  <g id="company-name" fill="currentColor">
    <text x="35" y="26" fontFamily="Arial" fontSize="18" fontWeight="bold" letterSpacing="1">진향미</text>
  </g>
  
  <!-- Decorative line -->
  <path d="M35 28L100 28" stroke="currentColor" strokeWidth="1" strokeDasharray="1 3"/>
</svg> 